# xmcd CD database file
#
# Track frame offsets:
#	150
#	12927
#	26585
#	45667
#	58512
#	70917
#	82490
#	96890
#	106332
#	119932
#
# Disc length: 1766 seconds
#
# Revision: 0
# Processed by: cddbd v1.5.1PL0 Copyright (c) Steve Scherf et al.
# Submitted via: CDex 1.51
#
DISCID=8c06e40a
DTITLE=Tammy Wynette - Collectors Edition
DYEAR=1900
DGENRE=Country
TTITLE0=There's No Use Hanging On
TTITLE1=Greener Than The Grass (We laid On)
TTITLE2=Easy Come, Easy Go
TTITLE3=What's You Mama's Name Child
TTITLE4=He Loves Me All The Way
TTITLE5=I Don't Wanna Play House
TTITLE6=You Can Be Replaced
TTITLE7=Your Good Girl's Gonna Go Bad
TTITLE8=D-I-V-O-R-C-E
TTITLE9=Stand By Your Man
EXTD=
EXTT0=
EXTT1=
EXTT2=
EXTT3=
EXTT4=
EXTT5=
EXTT6=
EXTT7=
EXTT8=
EXTT9=
PLAYORDER=
